<svg xmlns="http://www.w3.org/2000/svg" viewBox="0 0 800 500"><defs><linearGradient id="s" y2="1"><stop stop-color="#111b45"/><stop offset="1" stop-color="#160b27"/></linearGradient></defs><rect width="800" height="500" fill="url(#s)"/><circle cx="640" cy="95" r="48" fill="#ffe9a0"/><path d="M0 370L110 270 170 320 260 220 340 300 430 205 520 300 620 220 800 345V500H0Z" fill="#10152a"/><path d="M0 430h800v70H0z" fill="#080b15"/><path d="M80 430v-160h95v160M220 430v-200h120v200M395 430v-135h95v135M550 430v-185h140v185" fill="#161b2e" stroke="#313853" stroke-width="4"/><g fill="#ffb35c"><rect x="105" y="330" width="18" height="25"/><rect x="145" y="330" width="18" height="25"/><rect x="250" y="330" width="18" height="25"/><rect x="305" y="330" width="18" height="25"/><rect x="420" y="330" width="18" height="25"/><rect x="460" y="330" width="18" height="25"/><rect x="585" y="330" width="18" height="25"/><rect x="650" y="330" width="18" height="25"/></g></svg>